<?xml version="1.0" standalone="no"?><!DOCTYPE svg PUBLIC "-//W3C//DTD SVG 1.1//EN"
        "http://www.w3.org/Graphics/SVG/1.1/DTD/svg11.dtd">
<svg class="icon" width="200px" height="152.27px" viewBox="0 0 1345 1024" version="1.1"
     xmlns="http://www.w3.org/2000/svg">
    <path d="M1084.881589 733.364234a385.777759 385.777759 0 0 0-103.489139-103.489139 538.830114 538.830114 0 0 0-140.107273-69.445718l-63.509575-23.458492 53.210725-43.627073A271.77521 271.77521 0 0 0 693.811366 0.787004Q683.226437 0.000286 672.355428 0.000286a269.272017 269.272017 0 0 0-184.378024 72.664109A271.77521 271.77521 0 0 0 515.011886 493.486851l53.425284 43.627074-63.581095 23.530011A542.334583 542.334583 0 0 0 364.820322 629.875095a387.422714 387.422714 0 0 0-103.989778 103.489139 227.933577 227.933577 0 0 0-40.623241 125.946354c0 40.122603 11.872285 71.519792 36.332054 96.909318 60.934863 62.508298 190.314167 67.657723 328.991044 67.657724h131.882496c156.556825 0.643678 304.459755 1.215836 371.187721-67.300125 24.531289-25.103447 36.403574-57.215834 36.403574-97.123877a228.863335 228.863335 0 0 0-40.408682-125.874834z"
          fill="#0081ff"/>
    <path d="M324.34012 570.370628a599.836496 599.836496 0 0 1 104.204337-57.859512 342.150685 342.150685 0 0 1-61.650061-396.934846A224.071509 224.071509 0 0 0 224.57001 522.094768a421.966773 421.966773 0 0 0-108.137926 53.568325A307.535106 307.535106 0 0 0 33.969764 657.982373 191.744563 191.744563 0 0 0 0.069383 763.831666a123.085562 123.085562 0 0 0 34.11494 89.2567c27.892719 28.607917 69.517238 42.911875 118.865895 50.063855a243.167293 243.167293 0 0 1-4.076628-44.77139 298.094493 298.094493 0 0 1 52.424007-165.21072 458.298828 458.298828 0 0 1 122.942523-122.799483zM1311.742369 657.982373a307.535106 307.535106 0 0 0-82.46232-82.247761 421.966773 421.966773 0 0 0-108.137925-53.639844 224.071509 224.071509 0 0 0-142.252867-406.303939 342.150685 342.150685 0 0 1-61.650061 396.934847 599.836496 599.836496 0 0 1 104.204337 57.859511A458.298828 458.298828 0 0 1 1144.386056 693.241631a298.094493 298.094493 0 0 1 52.424008 165.21072 243.167293 243.167293 0 0 1-4.076629 44.771389c49.348657-7.151979 90.973176-21.455938 118.865895-50.063854a123.085562 123.085562 0 0 0 34.114941-89.256701A191.744563 191.744563 0 0 0 1311.742369 657.982373z"
          fill="#8BAEF7"/>
</svg>
