<?xml version="1.0" standalone="no"?><!DOCTYPE svg PUBLIC "-//W3C//DTD SVG 1.1//EN"
        "http://www.w3.org/Graphics/SVG/1.1/DTD/svg11.dtd">
<svg class="icon" width="200px" height="200.00px" viewBox="0 0 1024 1024" version="1.1"
     xmlns="http://www.w3.org/2000/svg">
    <path d="M0 0h1024v1024H0z" fill="#FFFFFF"/>
    <path d="M0 0h1024v1024H0z" fill="#FFFFFF"/>
    <path d="M96 96m160 0l512 0q160 0 160 160l0 512q0 160-160 160l-512 0q-160 0-160-160l0-512q0-160 160-160Z"
          fill="#0081ff"/>
    <path d="M745.856 32a16 16 0 0 1 2.88 31.744l-2.88 0.256H254.784a190.784 190.784 0 0 0-190.656 183.616L64 254.784v491.072a16 16 0 0 1-31.744 2.88L32 745.856V254.784a222.784 222.784 0 0 1 215.104-222.656L254.784 32h491.072zM975.936 727.36a16 16 0 0 1 15.744 13.12l0.256 2.88v25.856a222.784 222.784 0 0 1-215.104 222.624l-7.68 0.128H510.72a16 16 0 0 1-2.88-31.744l2.88-0.256h258.464c102.976 0 186.88-81.568 190.624-183.616l0.128-7.136v-25.856a16 16 0 0 1 16-16z"
          fill="#DEE8F5"/>
    <path d="M885.12 687.584v47.872a149.664 149.664 0 0 1-142.4 149.504l-7.264 0.16h-47.872a21.952 21.952 0 1 1 0-43.904h47.872a105.76 105.76 0 0 0 105.6-99.52l0.16-6.24v-47.872a21.952 21.952 0 1 1 43.904 0zM217.92 687.584v47.872a105.76 105.76 0 0 0 99.52 105.6l6.208 0.16h47.872a21.952 21.952 0 1 1 0 43.904h-47.872a149.664 149.664 0 0 1-149.472-142.4l-0.16-7.264v-47.872a21.952 21.952 0 1 1 43.872 0zM735.456 174.016a149.664 149.664 0 0 1 149.504 142.4l0.16 7.232v47.872a21.952 21.952 0 1 1-43.904 0v-47.872a105.76 105.76 0 0 0-99.52-105.6l-6.24-0.16h-47.872a21.952 21.952 0 0 1 0-43.904h47.872zM393.472 195.936a21.952 21.952 0 0 1-21.952 21.952h-47.872a105.76 105.76 0 0 0-105.6 99.52l-0.16 6.24v47.872a21.952 21.952 0 0 1-43.904 0v-47.872a149.664 149.664 0 0 1 142.4-149.472l7.264-0.16h47.872c12.16 0 21.952 9.824 21.952 21.92z"
          fill="#DEE8F5"/>
    <!-- 表情阴影yellow -->
<!--    <path d="M399.904 368a32 32 0 1 1 0 64 32 32 0 0 1 0-64z m224 0a32 32 0 1 1 0 64 32 32 0 0 1 0-64z" fill="#FDB754"/>
    <path d="M526.848 425.216a16 16 0 0 1 15.744 13.12l0.256 2.88v60.32a76.32 76.32 0 0 1-76.32 76.32 16 16 0 0 1 0-32c23.04 0 41.952-17.6 44.128-40.064l0.192-4.256v-60.32a16 16 0 0 1 16-16zM635.264 633.632a16 16 0 1 1 17.792 26.592 227.424 227.424 0 0 1-252.448 0 16 16 0 1 1 17.824-26.56 195.424 195.424 0 0 0 216.832 0z"
          fill="#FDB754"/>-->
    <!-- 表情前景 -->
<!--    <path d="M384 352a32 32 0 1 1 0 64 32 32 0 0 1 0-64z m224 0a32 32 0 1 1 0 64 32 32 0 0 1 0-64z" fill="#DEE8F5"/>
    <path d="M510.912 409.184a16 16 0 0 1 15.744 13.12l0.256 2.88v60.32a76.32 76.32 0 0 1-76.32 76.352 16 16 0 0 1 0-32c23.04 0 41.984-17.6 44.16-40.064l0.16-4.288v-60.32a16 16 0 0 1 16-16zM619.328 617.632a16 16 0 1 1 17.824 26.592 227.424 227.424 0 0 1-252.448 0 16 16 0 1 1 17.792-26.56 195.424 195.424 0 0 0 216.832 0z"
          fill="#DEE8F5"/>-->

    <!-- 表情阴影 -->
    <path d="M399.904 368a32 32 0 1 1 0 64 32 32 0 0 1 0-64z m224 0a32 32 0 1 1 0 64 32 32 0 0 1 0-64z" fill="#FFFFFF"/>
    <path d="M526.848 425.216a16 16 0 0 1 15.744 13.12l0.256 2.88v60.32a76.32 76.32 0 0 1-76.32 76.32 16 16 0 0 1 0-32c23.04 0 41.952-17.6 44.128-40.064l0.192-4.256v-60.32a16 16 0 0 1 16-16zM635.264 633.632a16 16 0 1 1 17.792 26.592 227.424 227.424 0 0 1-252.448 0 16 16 0 1 1 17.824-26.56 195.424 195.424 0 0 0 216.832 0z"
          fill="#FFFFFF"/>
</svg>
